<svg xmlns="http://www.w3.org/2000/svg" xmlns:xlink="http://www.w3.org/1999/xlink" version="1.1" x="0px" y="0px" viewBox="0 0 100 125" style="enable-background:new 0 0 100 100;" xml:space="preserve"><path d="M50.573,24.026l1.778,1.77l0.081-0.08c0.814-0.818,1.905-1.27,3.069-1.27c1.164,0,2.256,0.452,3.073,1.274l0.948,0.953  l-1.906,1.897l-0.949-0.953c-0.309-0.311-0.724-0.482-1.167-0.482c-0.443,0-0.858,0.171-1.167,0.482l-1.566,1.561  c-0.921,0.921-0.921,2.422,0.002,3.345c0.445,0.447,1.039,0.692,1.673,0.692s1.228-0.245,1.671-0.69  c0.827-0.827,2.094-1.975,3.566-2.413c1.156-0.345,2.902-0.389,4.647,1.355c1.829,1.829,1.96,4.721,0.394,6.704l1.792,1.792  l-1.902,1.902l-1.766-1.766l-0.081,0.081c-0.846,0.846-1.959,1.269-3.072,1.269c-1.112,0-2.225-0.422-3.074-1.267l-0.953-0.949  l1.897-1.906l0.953,0.949c0.649,0.646,1.702,0.647,2.347,0.002l1.562-1.562c0.923-0.923,0.923-2.424,0-3.346  c-0.883-0.883-1.885-1.467-4.408,1.056c-0.95,0.954-2.22,1.48-3.575,1.48s-2.625-0.526-3.576-1.482  c-1.827-1.827-1.958-4.719-0.393-6.701l-1.797-1.788L50.573,24.026z M91.673,66.195v13.931c0,0.743-0.602,1.345-1.345,1.345h-2.983  v4.823c0,7.096-5.773,12.869-12.869,12.869H26.984h-1.263H12.623c-1.837,0-3.332-1.495-3.332-3.332v-2.178  c0-1.718,1.307-3.136,2.979-3.312c-0.043-0.214-0.066-0.435-0.066-0.662v-2.183c0-0.506,0.117-0.985,0.32-1.415  c-1.791-0.053-3.232-1.523-3.232-3.327v-2.177c0-1.776,1.399-3.228,3.152-3.323c-2.513-2.107-4.115-5.267-4.115-8.795  c0-6.169,4.893-11.214,11.002-11.464v-8.494v-0.637c0-3.487,2.49-6.357,5.921-6.825l0.743-0.101L65.702,1.231  c0.525-0.525,1.377-0.525,1.902,0l21.705,21.705c0.252,0.252,0.394,0.594,0.394,0.951s-0.142,0.699-0.394,0.951L76.25,37.895  c0.78,1.123,1.187,2.446,1.187,3.89v5.721c5.673,1.342,9.908,6.447,9.908,12.527v4.818h2.983  C91.071,64.851,91.673,65.453,91.673,66.195z M74.293,39.852l-7.306,7.306h7.489c0.091,0,0.181,0.005,0.272,0.007v-5.38  C74.748,41.073,74.593,40.428,74.293,39.852z M28.733,42.003l5.16,5.156h29.29l23.272-23.272L66.653,4.083L28.733,42.003z   M22.078,47.158h8.01l-3.578-3.575l-0.896,0.122C23.767,43.957,22.372,45.362,22.078,47.158z M19.803,77.246  c4.845,0,8.786-3.942,8.786-8.786c0-4.845-3.941-8.786-8.786-8.786c-4.845,0-8.786,3.942-8.786,8.786  C11.017,73.305,14.958,77.246,19.803,77.246z M12.623,83.398h14.361c0.354,0,0.642-0.288,0.642-0.642v-2.177  c0-0.354-0.288-0.642-0.642-0.642H12.623c-0.354,0-0.642,0.288-0.642,0.642v2.177C11.98,83.11,12.268,83.398,12.623,83.398z   M29.896,90.323c0.348,0,0.642-0.294,0.642-0.642v-2.183c0-0.354-0.288-0.642-0.642-0.642H15.535c-0.354,0-0.642,0.288-0.642,0.642  v2.183c0,0.348,0.294,0.642,0.642,0.642h11.448H29.896z M26.984,96.474c0.354,0,0.642-0.288,0.642-0.642v-2.178  c0-0.354-0.288-0.642-0.642-0.642H15.535h-2.913c-0.354,0-0.642,0.288-0.642,0.642v2.178c0,0.354,0.288,0.642,0.642,0.642h13.098  H26.984z M84.655,81.471H68.792c-4.584,0-8.313-3.727-8.313-8.307c0-4.584,3.729-8.313,8.313-8.313h15.863v-4.818  c0-5.616-4.567-10.185-10.18-10.185H22.019v7.354c5.271,1.035,9.26,5.689,9.26,11.259c0,3.528-1.602,6.689-4.115,8.795  c1.753,0.094,3.152,1.546,3.152,3.323v2.177c0,0.506-0.117,0.985-0.32,1.415c1.791,0.053,3.232,1.523,3.232,3.327v2.183  c0,1.718-1.307,3.136-2.979,3.312c0.043,0.214,0.066,0.435,0.066,0.662v2.178c0,0.22-0.023,0.434-0.063,0.642h44.224  c5.613,0,10.18-4.567,10.18-10.18V81.471z M88.983,67.54H68.792c-3.101,0-5.623,2.523-5.623,5.624c0,3.098,2.523,5.618,5.623,5.618  h20.191V67.54z M18.458,74.393v1.84h2.689v-1.91c1.744-0.359,3.054-1.818,3.054-3.561c0-2.011-1.744-3.647-3.887-3.647  c-2.221,0-2.221-0.531-2.221-0.958c0-0.519,0.548-0.958,1.198-0.958h1.508c0.42,0,0.713,0.273,0.713,0.517v1.345h2.689v-1.345  c0-1.657-1.341-3.025-3.054-3.19v-1.84h-2.689v1.91c-1.744,0.359-3.054,1.818-3.054,3.561c0,1.412,0.662,2.514,1.864,3.104  c0.767,0.376,1.706,0.544,3.046,0.544c0.649,0,1.198,0.439,1.198,0.958c0,0.519-0.548,0.958-1.198,0.958h-1.508  c-0.42,0-0.713-0.273-0.713-0.517v-1.345h-2.689v1.345C15.404,72.861,16.745,74.228,18.458,74.393z"/><text x="0" y="115" fill="#000000" font-size="5px" font-weight="bold" font-family="'Helvetica Neue', Helvetica, Arial-Unicode, Arial, Sans-serif">Created by kliwir art</text><text x="0" y="120" fill="#000000" font-size="5px" font-weight="bold" font-family="'Helvetica Neue', Helvetica, Arial-Unicode, Arial, Sans-serif">from the Noun Project</text></svg>