<svg width="100" height="35" viewBox="0 0 100 35" fill="none" xmlns="http://www.w3.org/2000/svg">
<path d="M21.0001 11.5312L18.5001 11.5312C18.3031 11.5312 18.108 11.57 17.926 11.6454C17.7441 11.7208 17.5787 11.8312 17.4393 11.9705C17.3001 12.1099 17.1896 12.2753 17.1142 12.4572C17.0388 12.6392 17 12.8343 17 13.0312L17 18.5313C16.5 20.5308 16.4065 21.1247 15 22.5313C13.5935 23.9378 12.4892 25.0312 10.5 25.0313C9.51511 25.0313 8.90995 24.9082 8 24.5312C7.09004 24.1543 6.19645 23.2277 5.5 22.5313C4.80356 21.8348 4.87691 21.9412 4.5 21.0312C4.12309 20.1213 4.00003 19.5162 4.00004 18.5312L4.00004 13.0317C4.0001 12.8347 3.96134 12.6395 3.88599 12.4575C3.81063 12.2755 3.70015 12.11 3.56086 11.9707C3.42155 11.8314 3.25617 11.7209 3.07415 11.6454C2.89214 11.57 2.69705 11.5312 2.50002 11.5312L-7.43095e-07 11.5312L-4.15255e-07 18.0313C-3.55061e-07 19.4102 0.271592 20.7756 0.799269 22.0495C1.32695 23.3234 2.10038 24.4809 3.07539 25.4559C4.05042 26.4309 5.20793 27.2044 6.48186 27.732C7.75578 28.2597 9.12116 28.5313 10.5 28.5312C13.2848 28.5312 15.9555 27.425 17.9247 25.4559C19.8938 23.4868 21.0001 20.8161 21.0001 18.0313L21.0001 11.5312Z" fill="#EA580C"/>
<circle cx="4.5" cy="10.9688" r="4.5" fill="#0F172A"/>
<path d="M31.7344 24.7969C32.2865 24.7969 32.776 24.6927 33.2031 24.4844C33.6302 24.2656 33.9635 23.9635 34.2031 23.5781C34.4531 23.1823 34.5833 22.7188 34.5938 22.1875H38.8281C38.8177 23.375 38.5 24.4323 37.875 25.3594C37.25 26.276 36.4115 27 35.3594 27.5312C34.3073 28.0521 33.1302 28.3125 31.8281 28.3125C30.5156 28.3125 29.3698 28.0938 28.3906 27.6562C27.4219 27.2188 26.6146 26.6146 25.9688 25.8438C25.3229 25.0625 24.8385 24.1562 24.5156 23.125C24.1927 22.0833 24.0312 20.9688 24.0312 19.7812V19.3281C24.0312 18.1302 24.1927 17.0156 24.5156 15.9844C24.8385 14.9427 25.3229 14.0365 25.9688 13.2656C26.6146 12.4844 27.4219 11.875 28.3906 11.4375C29.3594 11 30.4948 10.7812 31.7969 10.7812C33.1823 10.7812 34.3958 11.0469 35.4375 11.5781C36.4896 12.1094 37.3125 12.8698 37.9062 13.8594C38.5104 14.8385 38.8177 16 38.8281 17.3438H34.5938C34.5833 16.7812 34.4635 16.2708 34.2344 15.8125C34.0156 15.3542 33.6927 14.9896 33.2656 14.7188C32.849 14.4375 32.3333 14.2969 31.7188 14.2969C31.0625 14.2969 30.526 14.4375 30.1094 14.7188C29.6927 14.9896 29.3698 15.3646 29.1406 15.8438C28.9115 16.3125 28.75 16.849 28.6562 17.4531C28.5729 18.0469 28.5312 18.6719 28.5312 19.3281V19.7812C28.5312 20.4375 28.5729 21.0677 28.6562 21.6719C28.7396 22.276 28.8958 22.8125 29.125 23.2812C29.3646 23.75 29.6927 24.1198 30.1094 24.3906C30.526 24.6615 31.0677 24.7969 31.7344 24.7969ZM46.1875 4V28H41.6719V4H46.1875ZM54.6562 11.0938V28H50.1406V11.0938H54.6562ZM49.8594 6.6875C49.8594 6.03125 50.0885 5.48958 50.5469 5.0625C51.0052 4.63542 51.6198 4.42188 52.3906 4.42188C53.151 4.42188 53.7604 4.63542 54.2188 5.0625C54.6875 5.48958 54.9219 6.03125 54.9219 6.6875C54.9219 7.34375 54.6875 7.88542 54.2188 8.3125C53.7604 8.73958 53.151 8.95312 52.3906 8.95312C51.6198 8.95312 51.0052 8.73958 50.5469 8.3125C50.0885 7.88542 49.8594 7.34375 49.8594 6.6875ZM62.7812 14.7031V28H58.2812V11.0938H62.5L62.7812 14.7031ZM62.125 18.9531H60.9062C60.9062 17.7031 61.0677 16.5781 61.3906 15.5781C61.7135 14.5677 62.1667 13.7083 62.75 13C63.3333 12.2812 64.026 11.7344 64.8281 11.3594C65.6406 10.974 66.5469 10.7812 67.5469 10.7812C68.3385 10.7812 69.0625 10.8958 69.7188 11.125C70.375 11.3542 70.9375 11.7188 71.4062 12.2188C71.8854 12.7188 72.25 13.3802 72.5 14.2031C72.7604 15.026 72.8906 16.0312 72.8906 17.2188V28H68.3594V17.2031C68.3594 16.4531 68.2552 15.8698 68.0469 15.4531C67.8385 15.0365 67.5312 14.7448 67.125 14.5781C66.7292 14.401 66.2396 14.3125 65.6562 14.3125C65.0521 14.3125 64.526 14.4323 64.0781 14.6719C63.6406 14.9115 63.276 15.2448 62.9844 15.6719C62.7031 16.0885 62.4896 16.5781 62.3438 17.1406C62.1979 17.7031 62.125 18.3073 62.125 18.9531ZM81.0625 11.0938V28H76.5469V11.0938H81.0625ZM76.2656 6.6875C76.2656 6.03125 76.4948 5.48958 76.9531 5.0625C77.4115 4.63542 78.026 4.42188 78.7969 4.42188C79.5573 4.42188 80.1667 4.63542 80.625 5.0625C81.0938 5.48958 81.3281 6.03125 81.3281 6.6875C81.3281 7.34375 81.0938 7.88542 80.625 8.3125C80.1667 8.73958 79.5573 8.95312 78.7969 8.95312C78.026 8.95312 77.4115 8.73958 76.9531 8.3125C76.4948 7.88542 76.2656 7.34375 76.2656 6.6875ZM91.7656 24.7969C92.3177 24.7969 92.8073 24.6927 93.2344 24.4844C93.6615 24.2656 93.9948 23.9635 94.2344 23.5781C94.4844 23.1823 94.6146 22.7188 94.625 22.1875H98.8594C98.849 23.375 98.5312 24.4323 97.9062 25.3594C97.2812 26.276 96.4427 27 95.3906 27.5312C94.3385 28.0521 93.1615 28.3125 91.8594 28.3125C90.5469 28.3125 89.401 28.0938 88.4219 27.6562C87.4531 27.2188 86.6458 26.6146 86 25.8438C85.3542 25.0625 84.8698 24.1562 84.5469 23.125C84.224 22.0833 84.0625 20.9688 84.0625 19.7812V19.3281C84.0625 18.1302 84.224 17.0156 84.5469 15.9844C84.8698 14.9427 85.3542 14.0365 86 13.2656C86.6458 12.4844 87.4531 11.875 88.4219 11.4375C89.3906 11 90.526 10.7812 91.8281 10.7812C93.2135 10.7812 94.4271 11.0469 95.4688 11.5781C96.5208 12.1094 97.3438 12.8698 97.9375 13.8594C98.5417 14.8385 98.849 16 98.8594 17.3438H94.625C94.6146 16.7812 94.4948 16.2708 94.2656 15.8125C94.0469 15.3542 93.724 14.9896 93.2969 14.7188C92.8802 14.4375 92.3646 14.2969 91.75 14.2969C91.0938 14.2969 90.5573 14.4375 90.1406 14.7188C89.724 14.9896 89.401 15.3646 89.1719 15.8438C88.9427 16.3125 88.7812 16.849 88.6875 17.4531C88.6042 18.0469 88.5625 18.6719 88.5625 19.3281V19.7812C88.5625 20.4375 88.6042 21.0677 88.6875 21.6719C88.7708 22.276 88.9271 22.8125 89.1562 23.2812C89.3958 23.75 89.724 24.1198 90.1406 24.3906C90.5573 24.6615 91.099 24.7969 91.7656 24.7969Z" fill="#0F172A"/>
</svg>
